<svg width="173" height="75" viewBox="0 0 173 75" fill="none" xmlns="http://www.w3.org/2000/svg">
<path d="M1 37.5C1 35.3924 2.47168 33.1237 5.58183 30.7356C8.65672 28.3745 13.1259 26.0598 18.6346 23.8303C29.6405 19.3759 44.571 15.3498 60.1955 11.9608C91.4586 5.1796 125.252 1 135.5 1C155.658 1 172 17.3416 172 37.5C172 57.6584 155.658 74 135.5 74C125.252 74 91.4586 69.8204 60.1955 63.0392C44.571 59.6502 29.6405 55.6241 18.6346 51.1697C13.1259 48.9402 8.65672 46.6255 5.58183 44.2644C2.47168 41.8763 1 39.6076 1 37.5Z" fill="url(#paint0_linear_115_27)" stroke="#8E60C5" stroke-width="2"/>
<path d="M12 37.5C12 22.3122 118.312 10 133.5 10C148.688 10 161 22.3122 161 37.5C161 52.6878 148.688 65 133.5 65C118.312 65 12 52.6878 12 37.5Z" fill="url(#paint1_linear_115_27)"/>
<path d="M90.584 41.176C90.584 42.136 90.664 42.912 90.824 43.504C90.984 44.096 91.264 44.656 91.664 45.184L91.976 45.616L91.664 46H87.104L86.816 45.184L87.368 45.04C87.976 44.864 88.384 44.632 88.592 44.344C88.8 44.056 88.904 43.544 88.904 42.808V31.96C88.904 31.224 88.8 30.712 88.592 30.424C88.384 30.136 87.976 29.904 87.368 29.728L86.816 29.584L87.104 28.768H90.968L100.136 42.376V31.96C100.136 31.224 100.032 30.712 99.824 30.424C99.616 30.136 99.208 29.904 98.6 29.728L98.048 29.584L98.336 28.768H102.896L103.208 29.152L102.896 29.584C102.496 30.112 102.216 30.672 102.056 31.264C101.896 31.856 101.816 32.632 101.816 33.592V43.888C101.816 44.192 101.84 44.44 101.888 44.632C101.936 44.824 102.024 45.008 102.152 45.184L102.464 45.616L102.152 46H99.728L90.584 32.44V41.176ZM116.055 44.2C115.463 44.888 114.759 45.416 113.943 45.784C113.127 46.152 112.247 46.336 111.303 46.336C110.199 46.336 109.231 46.08 108.399 45.568C107.567 45.056 106.919 44.336 106.455 43.408C106.007 42.48 105.783 41.408 105.783 40.192C105.783 38.912 106.039 37.792 106.551 36.832C107.063 35.856 107.783 35.104 108.711 34.576C109.655 34.032 110.751 33.76 111.999 33.76C112.879 33.76 113.623 33.928 114.231 34.264C114.855 34.584 115.319 35.016 115.623 35.56C115.927 36.088 116.079 36.664 116.079 37.288C116.079 37.96 115.895 38.608 115.527 39.232C115.175 39.856 114.655 40.368 113.967 40.768C113.279 41.152 112.455 41.344 111.495 41.344C110.983 41.344 110.415 41.248 109.791 41.056C109.167 40.864 108.855 40.584 108.855 40.216C108.855 40.088 108.887 39.968 108.951 39.856C109.031 39.744 109.119 39.688 109.215 39.688C109.263 39.688 109.423 39.744 109.695 39.856C109.967 39.952 110.319 40 110.751 40C111.711 40 112.455 39.728 112.983 39.184C113.527 38.64 113.799 38 113.799 37.264C113.799 36.64 113.599 36.104 113.199 35.656C112.799 35.192 112.239 34.96 111.519 34.96C110.495 34.96 109.695 35.416 109.119 36.328C108.543 37.224 108.255 38.512 108.255 40.192C108.255 41.616 108.559 42.736 109.167 43.552C109.775 44.352 110.655 44.752 111.807 44.752C113.215 44.752 114.383 44.296 115.311 43.384C115.375 43.32 115.447 43.288 115.527 43.288C115.655 43.288 115.791 43.368 115.935 43.528C116.079 43.672 116.151 43.824 116.151 43.984C116.151 44.064 116.119 44.136 116.055 44.2ZM128.758 35.848C126.934 37.672 125.71 38.92 125.086 39.592L127.75 44.152C127.894 44.408 128.046 44.584 128.206 44.68C128.366 44.776 128.55 44.824 128.758 44.824C129.046 44.824 129.35 44.72 129.67 44.512L130.198 45.232C129.51 45.968 128.766 46.336 127.966 46.336C126.894 46.336 126.038 45.776 125.398 44.656L123.454 41.344C122.046 42.976 121.342 44.024 121.342 44.488C121.342 44.744 121.494 45 121.798 45.256L122.254 45.64L121.966 46H118.246L117.982 45.496L118.51 44.968C120.686 42.792 122.166 41.288 122.95 40.456L120.334 35.944C120.19 35.688 120.038 35.512 119.878 35.416C119.718 35.32 119.534 35.272 119.326 35.272C119.038 35.272 118.734 35.376 118.414 35.584L117.886 34.864C118.574 34.128 119.318 33.76 120.118 33.76C121.19 33.76 122.046 34.32 122.686 35.44L124.558 38.704C125.966 37.104 126.67 36.064 126.67 35.584C126.67 35.328 126.518 35.072 126.214 34.816L125.758 34.432L126.046 34.072H129.766L130.03 34.576L128.758 35.848ZM138.352 34.072C138.352 34.408 138.304 34.712 138.208 34.984C138.112 35.256 137.976 35.456 137.8 35.584H135.232V43.312C135.232 43.808 135.304 44.16 135.448 44.368C135.592 44.576 135.824 44.68 136.144 44.68C136.624 44.68 137.168 44.424 137.776 43.912L138.232 44.536C137.816 45.08 137.32 45.52 136.744 45.856C136.168 46.176 135.624 46.336 135.112 46.336C134.456 46.336 133.944 46.136 133.576 45.736C133.224 45.32 133.048 44.752 133.048 44.032V35.584H130.936C130.936 35.152 130.968 34.872 131.032 34.744C131.096 34.616 131.256 34.52 131.512 34.456C132.36 34.232 132.96 33.872 133.312 33.376C133.68 32.864 133.944 32.208 134.104 31.408C134.152 31.152 134.232 30.992 134.344 30.928C134.472 30.864 134.768 30.832 135.232 30.832V34.072H138.352Z" fill="#A672C2"/>
<defs>
<linearGradient id="paint0_linear_115_27" x1="135.5" y1="75" x2="135.5" y2="-2.16064e-07" gradientUnits="userSpaceOnUse">
<stop stop-color="#AA75C2"/>
<stop offset="1" stop-color="#FEB6B7"/>
</linearGradient>
<linearGradient id="paint1_linear_115_27" x1="133.5" y1="65" x2="133.5" y2="10" gradientUnits="userSpaceOnUse">
<stop stop-color="#F4D8A7"/>
<stop offset="1" stop-color="white"/>
</linearGradient>
</defs>
</svg>
