<svg width="173" height="75" viewBox="0 0 173 75" fill="none" xmlns="http://www.w3.org/2000/svg">
<path d="M172 37.5C172 39.6076 170.528 41.8763 167.418 44.2644C164.343 46.6255 159.874 48.9402 154.365 51.1697C143.359 55.6241 128.429 59.6502 112.805 63.0392C81.5414 69.8204 47.7484 74 37.5 74C17.3416 74 1 57.6584 1 37.5C1 17.3416 17.3416 1 37.5 1C47.7484 1 81.5414 5.17959 112.805 11.9608C128.429 15.3498 143.359 19.3759 154.365 23.8303C159.874 26.0598 164.343 28.3745 167.418 30.7356C170.528 33.1237 172 35.3924 172 37.5Z" fill="url(#paint0_linear_127_28)" stroke="#8E60C5" stroke-width="2"/>
<path d="M160 37.5C160 52.6878 53.6878 65 38.5 65C23.3122 65 11 52.6878 11 37.5C11 22.3122 23.3122 10 38.5 10C53.6878 10 160 22.3122 160 37.5Z" fill="url(#paint1_linear_127_28)"/>
<path d="M40.184 45.184L40.736 45.04C41.344 44.864 41.752 44.632 41.96 44.344C42.168 44.056 42.272 43.544 42.272 42.808V37.984H34.424V42.976C34.424 43.664 34.52 44.144 34.712 44.416C34.904 44.688 35.296 44.912 35.888 45.088L36.392 45.232L36.128 46H30.248L29.96 45.184L30.512 45.04C31.12 44.864 31.528 44.632 31.736 44.344C31.944 44.056 32.048 43.544 32.048 42.808V31.96C32.048 31.224 31.944 30.712 31.736 30.424C31.528 30.136 31.12 29.904 30.512 29.728L29.96 29.584L30.248 28.768H35.504L35.816 29.152L35.504 29.584C35.104 30.112 34.824 30.672 34.664 31.264C34.504 31.856 34.424 32.632 34.424 33.592V36.52H42.272V31.96C42.272 31.224 42.168 30.712 41.96 30.424C41.752 30.136 41.344 29.904 40.736 29.728L40.184 29.584L40.472 28.768H45.728L46.04 29.152L45.728 29.584C45.328 30.112 45.048 30.672 44.888 31.264C44.728 31.856 44.648 32.632 44.648 33.592V42.976C44.648 43.664 44.744 44.144 44.936 44.416C45.128 44.688 45.52 44.912 46.112 45.088L46.616 45.232L46.352 46H40.472L40.184 45.184ZM48.7831 40.048C48.7831 38.768 49.0151 37.656 49.4791 36.712C49.9591 35.768 50.6391 35.04 51.5191 34.528C52.4151 34.016 53.4551 33.76 54.6391 33.76C55.8231 33.76 56.8551 34.016 57.7351 34.528C58.6151 35.04 59.2951 35.768 59.7751 36.712C60.2551 37.656 60.4951 38.768 60.4951 40.048C60.4951 41.312 60.2551 42.424 59.7751 43.384C59.2951 44.328 58.6151 45.056 57.7351 45.568C56.8551 46.08 55.8231 46.336 54.6391 46.336C53.4551 46.336 52.4151 46.08 51.5191 45.568C50.6391 45.056 49.9591 44.328 49.4791 43.384C49.0151 42.424 48.7831 41.312 48.7831 40.048ZM57.9751 40.12C57.9751 39.368 57.8711 38.6 57.6631 37.816C57.4551 37.032 57.1031 36.368 56.6071 35.824C56.1271 35.28 55.4951 35.008 54.7111 35.008C54.0391 35.008 53.4391 35.224 52.9111 35.656C52.3991 36.072 51.9991 36.664 51.7111 37.432C51.4231 38.2 51.2791 39.08 51.2791 40.072C51.2791 41.592 51.5751 42.8 52.1671 43.696C52.7591 44.592 53.5591 45.04 54.5671 45.04C55.2231 45.04 55.8071 44.84 56.3191 44.44C56.8471 44.024 57.2551 43.448 57.5431 42.712C57.8311 41.96 57.9751 41.096 57.9751 40.12ZM66.4741 42.16C66.4741 42.912 66.5301 43.512 66.6421 43.96C66.7541 44.408 66.9541 44.84 67.2421 45.256L67.5301 45.64L67.2421 46H63.0421L62.7781 45.256L63.2821 45.136C63.6821 45.04 63.9461 44.872 64.0741 44.632C64.2181 44.376 64.2901 43.944 64.2901 43.336V36.592C64.2901 36.4 64.2501 36.264 64.1701 36.184C64.1061 36.104 63.9861 36.064 63.8101 36.064H62.7541L62.5381 35.44C63.0021 35.024 63.5301 34.68 64.1221 34.408C64.7301 34.136 65.2581 34 65.7061 34C65.9301 34 66.1141 34.072 66.2581 34.216C66.4021 34.36 66.4741 34.544 66.4741 34.768V37.336C66.8901 36.28 67.4981 35.424 68.2981 34.768C69.0981 34.096 69.9381 33.76 70.8181 33.76C71.7941 33.76 72.5301 34.048 73.0261 34.624C73.5221 35.2 73.8101 36.104 73.8901 37.336C74.3061 36.28 74.9141 35.424 75.7141 34.768C76.5141 34.096 77.3541 33.76 78.2341 33.76C79.3061 33.76 80.0821 34.104 80.5621 34.792C81.0581 35.48 81.3061 36.576 81.3061 38.08V43.888C81.3061 44.432 81.5461 44.704 82.0261 44.704C82.3941 44.704 82.7941 44.536 83.2261 44.2L83.6821 44.824C83.2661 45.288 82.8181 45.656 82.3381 45.928C81.8581 46.2 81.4101 46.336 80.9941 46.336C80.3381 46.336 79.8661 46.136 79.5781 45.736C79.2901 45.336 79.1461 44.688 79.1461 43.792V38.08C79.1461 36.448 78.5541 35.632 77.3701 35.632C76.6981 35.632 76.1061 35.896 75.5941 36.424C75.0821 36.936 74.6741 37.664 74.3701 38.608C74.0661 39.552 73.9061 40.64 73.8901 41.872V42.16C73.8901 42.992 73.9541 43.656 74.0821 44.152C74.2261 44.632 74.5141 45.128 74.9461 45.64L74.6581 46H71.7301V38.08C71.7301 36.448 71.1381 35.632 69.9541 35.632C69.2661 35.632 68.6581 35.904 68.1301 36.448C67.6181 36.992 67.2101 37.76 66.9061 38.752C66.6181 39.744 66.4741 40.88 66.4741 42.16ZM95.5239 44.2C94.9319 44.888 94.2279 45.416 93.4119 45.784C92.5959 46.152 91.7159 46.336 90.7719 46.336C89.6679 46.336 88.6999 46.08 87.8679 45.568C87.0359 45.056 86.3879 44.336 85.9239 43.408C85.4759 42.48 85.2519 41.408 85.2519 40.192C85.2519 38.912 85.5079 37.792 86.0199 36.832C86.5319 35.856 87.2519 35.104 88.1799 34.576C89.1239 34.032 90.2199 33.76 91.4679 33.76C92.3479 33.76 93.0919 33.928 93.6999 34.264C94.3239 34.584 94.7879 35.016 95.0919 35.56C95.3959 36.088 95.5479 36.664 95.5479 37.288C95.5479 37.96 95.3639 38.608 94.9959 39.232C94.6439 39.856 94.1239 40.368 93.4359 40.768C92.7479 41.152 91.9239 41.344 90.9639 41.344C90.4519 41.344 89.8839 41.248 89.2599 41.056C88.6359 40.864 88.3239 40.584 88.3239 40.216C88.3239 40.088 88.3559 39.968 88.4199 39.856C88.4999 39.744 88.5879 39.688 88.6839 39.688C88.7319 39.688 88.8919 39.744 89.1639 39.856C89.4359 39.952 89.7879 40 90.2199 40C91.1799 40 91.9239 39.728 92.4519 39.184C92.9959 38.64 93.2679 38 93.2679 37.264C93.2679 36.64 93.0679 36.104 92.6679 35.656C92.2679 35.192 91.7079 34.96 90.9879 34.96C89.9639 34.96 89.1639 35.416 88.5879 36.328C88.0119 37.224 87.7239 38.512 87.7239 40.192C87.7239 41.616 88.0279 42.736 88.6359 43.552C89.2439 44.352 90.1239 44.752 91.2759 44.752C92.6839 44.752 93.8519 44.296 94.7799 43.384C94.8439 43.32 94.9159 43.288 94.9959 43.288C95.1239 43.288 95.2599 43.368 95.4039 43.528C95.5479 43.672 95.6199 43.824 95.6199 43.984C95.6199 44.064 95.5879 44.136 95.5239 44.2Z" fill="#A672C2"/>
<defs>
<linearGradient id="paint0_linear_127_28" x1="37.5" y1="2.16064e-07" x2="37.5" y2="75" gradientUnits="userSpaceOnUse">
<stop stop-color="#FEB6B7"/>
<stop offset="1" stop-color="#9F6DC3"/>
</linearGradient>
<linearGradient id="paint1_linear_127_28" x1="38.5" y1="10" x2="38.5" y2="65" gradientUnits="userSpaceOnUse">
<stop stop-color="white"/>
<stop offset="1" stop-color="#F4D8A7"/>
</linearGradient>
</defs>
</svg>
